<svg id="Design" xmlns="http://www.w3.org/2000/svg" viewBox="0 0 960 560"><defs><style>.cls-1{fill:#666;}.cls-2{fill:#fc3;}.cls-3{fill:#4d4d4d;}</style></defs><title>benevento</title><path class="cls-1" d="M291.73,373.47h16.56c4.65,0,6.86,2.21,6.86,6.86v4.75c0,2.9-1.32,4.41-3.24,5.15,2.4.69,3.63,2.3,3.63,5.19v5.49c0,4.65-2.2,6.86-6.86,6.86H291.73Zm16.36,15.14c2.55,0,3.53-1,3.53-3.53v-4.85c0-2.54-1-3.52-3.53-3.52H295.26v11.9Zm.39,15.93c2.55,0,3.53-1,3.53-3.53v-5.69c0-2.54-1-3.52-3.53-3.52H295.26v12.74Z"/><path class="cls-1" d="M330.93,373.47h21.7v3.24H334.46v11.9h15.33v3.24H334.46v12.69h18.17v3.23h-21.7Z"/><path class="cls-1" d="M367.48,373.47h3.92l18,29v-29h3.33v34.3h-3.62l-18.33-29.45v29.45h-3.33Z"/><path class="cls-1" d="M409.62,373.47h21.71v3.24H413.15v11.9h15.33v3.24H413.15v12.69h18.18v3.23H409.62Z"/><path class="cls-1" d="M442.94,373.47h3.82l10,30.43L467,373.47h3.62l-11.8,34.3h-4Z"/><path class="cls-1" d="M484.2,373.47h21.7v3.24H487.73v11.9h15.33v3.24H487.73v12.69H505.9v3.23H484.2Z"/><path class="cls-1" d="M520.75,373.47h3.92l18,29v-29H546v34.3h-3.62l-18.33-29.45v29.45h-3.33Z"/><path class="cls-1" d="M570.29,376.71H559.76v-3.24h24.59v3.24H573.82v31.06h-3.53Z"/><path class="cls-1" d="M596.6,400.91V380.33c0-4.65,2.21-6.86,6.86-6.86h10.83c4.66,0,6.86,2.21,6.86,6.86v20.58c0,4.65-2.2,6.86-6.86,6.86H603.46C598.81,407.77,596.6,405.56,596.6,400.91Zm17.5,3.63c2.54,0,3.52-1,3.52-3.53V380.23c0-2.54-1-3.52-3.52-3.52H603.66c-2.55,0-3.53,1-3.53,3.52V401c0,2.55,1,3.53,3.53,3.53Z"/><path class="cls-2" d="M341.28,344.87h15.05a1.3,1.3,0,0,0,1.44-1.44v-30a1.29,1.29,0,0,0-1.44-1.43H341.28l-10.37-9.51h27.15c6.55,0,10.08,3.53,10.08,10.08v31.68c0,6.55-3.53,10.08-10.08,10.08H330.91Z"/><path class="cls-3" d="M410,302.53V312H386.47V323.2h19.08v9.35H386.47v12.32H410v9.5H376.11V302.53Z"/><path class="cls-3" d="M443.16,354.37h-12.1l-15.62-51.84h11.38l10.43,40.39,10.44-40.39h11.09Z"/><path class="cls-3" d="M526,342.71l-3.24,11.66H511.85l16.49-51.84h12.53l16.49,51.84H546l-3.24-11.66Zm8.35-29.81-5.69,20.3h11.38Z"/><path class="cls-3" d="M568.9,354.37V336.44l-16.41-33.91h11.23l10.44,23.18,10.44-23.18h11.09l-16.42,33.91v17.93Z"/><polygon class="cls-3" points="325.73 354.37 325.73 302.53 336.1 312.04 336.1 344.87 325.73 354.37"/><path class="cls-2" d="M480.8,344.87h15.05a1.3,1.3,0,0,0,1.44-1.44v-30a1.29,1.29,0,0,0-1.44-1.43H480.8l-10.37-9.51h27.14c6.56,0,10.08,3.53,10.08,10.08v31.68c0,6.55-3.52,10.08-10.08,10.08H470.43Z"/><path class="cls-3" d="M414.84,230c-1.91,0-2.84-1.47-2.84-3.38V165.71c0-1.91.93-2.71,2.84-2.71h30L423.7,144H411.32C398,144,391,150.62,391,164v64.43c0,13.33,7,21.62,20.32,21.62H423.7l21.09-20Z"/><path class="cls-2" d="M500.09,144h-55.2L466,163h30.61c1.9,0,3.42.8,3.42,2.71v60.91a3.37,3.37,0,0,1-3.42,3.38H466l-21.08,20h55.2c13.33,0,20.91-8.29,20.91-21.62V164C521,150.62,513.42,144,500.09,144Z"/><polygon class="cls-3" points="465.25 354.37 465.25 302.53 475.62 312.04 475.62 344.87 465.25 354.37"/></svg>