<svg id="Design" xmlns="http://www.w3.org/2000/svg" viewBox="0 0 960 560"><defs><style>.cls-1{fill:#666;}.cls-2{fill:#4d4d4d;}.cls-3{fill:#1448b1;}</style></defs><title>caserta2</title><path class="cls-1" d="M490.47,291.5V270.92c0-4.65,2.21-6.86,6.86-6.86h10.19c4.66,0,6.86,2.21,6.86,6.86v3.73h-3.53v-3.83c0-2.54-1-3.52-3.52-3.52h-9.8c-2.55,0-3.53,1-3.53,3.52V291.6c0,2.55,1,3.53,3.53,3.53h9.8c2.54,0,3.52-1,3.52-3.53v-3.82h3.53v3.72c0,4.46-2.2,6.86-6.86,6.86H497.33C492.68,298.36,490.47,296,490.47,291.5Z"/><path class="cls-1" d="M547.85,288.07H533.44l-3.67,10.29h-3.63l12.59-34.3h4l12.59,34.3h-3.82Zm-1.18-3.23-6-16.91-6,16.91Z"/><path class="cls-1" d="M567,291.5V288h3.53v3.77c0,2.55,1,3.53,3.52,3.53h9.71c2.54,0,3.52-1,3.52-3.53v-4.11c0-2.6-1.12-3.43-3.52-4l-9.61-2.2c-3.82-.89-7-1.87-7-7v-3.58c0-4.65,2.2-6.86,6.86-6.86h9.5c4.66,0,6.86,2.21,6.86,6.86v3.14H586.8v-3.43c0-2.55-1-3.53-3.52-3.53h-9.12c-2.55,0-3.53,1-3.53,3.53v3.48c0,2.59,1.13,3.43,3.53,4l9.61,2.2c3.82.88,7.05,1.86,7.05,7v4.21c0,4.66-2.2,6.86-6.86,6.86H573.87C569.21,298.36,567,296.16,567,291.5Z"/><path class="cls-1" d="M606.31,264.06H628v3.24H609.83v11.9h15.34v3.24H609.83v12.69H628v3.23h-21.7Z"/><path class="cls-1" d="M667.5,298.36h-3.92l-7.64-14.16h-9.55v14.16h-3.53v-34.3h16.71c4.65,0,6.86,2.21,6.86,6.86v6.42c0,4.56-2.11,6.76-6.57,6.86ZM659.37,281c2.55,0,3.53-1,3.53-3.53v-6.62c0-2.54-1-3.52-3.53-3.52h-13V281Z"/><path class="cls-1" d="M689.36,267.3H678.83v-3.24h24.59v3.24H692.89v31.06h-3.53Z"/><path class="cls-1" d="M731,288.07h-14.4l-3.68,10.29h-3.62l12.59-34.3h4l12.59,34.3h-3.83Zm-1.17-3.23-6-16.91-6,16.91Z"/><path class="cls-2" d="M317.68,279c-1.9,0-2.68-1.47-2.68-3.38V214.71c0-1.91.78-2.71,2.68-2.71h29.95l-21.09-19H314.17C300.84,193,294,199.62,294,213v64.43c0,13.33,6.84,21.62,20.17,21.62h12.37l21.09-20Z"/><path class="cls-3" d="M402.94,193H347.73l21.09,19h30.6c1.91,0,3.58.8,3.58,2.71v60.91a3.5,3.5,0,0,1-3.58,3.38h-30.6l-21.09,20h55.21c13.32,0,21.06-8.29,21.06-21.62V213C424,199.62,416.26,193,402.94,193Z"/><path class="cls-3" d="M493.75,235.84H508.8a1.29,1.29,0,0,0,1.44-1.44v-30A1.3,1.3,0,0,0,508.8,203H493.75l-10.37-9.5h27.14c6.55,0,10.08,3.53,10.08,10.08v31.68c0,6.55-3.53,10.08-10.08,10.08H483.38Z"/><path class="cls-2" d="M562.48,193.51V203H538.94v11.16H558v9.36H538.94v12.31h23.54v9.51H528.57V193.51Z"/><path class="cls-2" d="M595.63,245.35h-12.1l-15.62-51.84h11.37l10.44,40.39,10.44-40.39h11.09Z"/><path class="cls-2" d="M678.5,233.68l-3.24,11.67H664.32l16.49-51.84h12.53l16.48,51.84H698.45l-3.24-11.67Zm8.36-29.8-5.69,20.3h11.37Z"/><path class="cls-2" d="M721.37,245.35V227.42L705,193.51h11.23l10.44,23.18,10.44-23.18h11.09l-16.42,33.91v17.93Z"/><polygon class="cls-2" points="478.2 245.35 478.2 193.51 488.56 203.01 488.56 235.84 478.2 245.35"/><path class="cls-3" d="M633.27,235.84h15a1.29,1.29,0,0,0,1.44-1.44v-30a1.29,1.29,0,0,0-1.44-1.44h-15l-10.37-9.5H650c6.55,0,10.08,3.53,10.08,10.08v31.68c0,6.55-3.53,10.08-10.08,10.08H622.9Z"/><polygon class="cls-2" points="617.72 245.35 617.72 193.51 628.08 203.01 628.08 235.84 617.72 245.35"/></svg>