<svg id="Design" xmlns="http://www.w3.org/2000/svg" viewBox="0 0 960 560"><defs><style>.cls-1{font-size:49px;fill:#666;font-family:Industry-Book, Industry;letter-spacing:0.14em;}.cls-2{letter-spacing:0.14em;}.cls-3{letter-spacing:0.15em;}.cls-4{letter-spacing:0.14em;}.cls-5{letter-spacing:0.06em;}.cls-6{letter-spacing:0.13em;}.cls-7{fill:#1448b1;}.cls-8{fill:#4d4d4d;}</style></defs><title>caserta</title><text class="cls-1" transform="translate(329.3 407.77)">C<tspan class="cls-2" x="38.02" y="0">A</tspan><tspan class="cls-3" x="77.03" y="0">SE</tspan><tspan class="cls-4" x="151.51" y="0">R</tspan><tspan class="cls-5" x="190.61" y="0">T</tspan><tspan class="cls-6" x="221.14" y="0">A</tspan></text><path class="cls-7" d="M341.28,344.87h15.05a1.3,1.3,0,0,0,1.44-1.44v-30a1.29,1.29,0,0,0-1.44-1.43H341.28l-10.37-9.51h27.15c6.55,0,10.08,3.53,10.08,10.08v31.68c0,6.55-3.53,10.08-10.08,10.08H330.91Z"/><path class="cls-8" d="M410,302.53V312H386.47V323.2h19.08v9.35H386.47v12.32H410v9.5H376.11V302.53Z"/><path class="cls-8" d="M443.16,354.37h-12.1l-15.62-51.84h11.38l10.43,40.39,10.44-40.39h11.09Z"/><path class="cls-8" d="M526,342.71l-3.24,11.66H511.85l16.49-51.84h12.53l16.49,51.84H546l-3.24-11.66Zm8.35-29.81-5.69,20.3h11.38Z"/><path class="cls-8" d="M568.9,354.37V336.44l-16.41-33.91h11.23l10.44,23.18,10.44-23.18h11.09l-16.42,33.91v17.93Z"/><polygon class="cls-8" points="325.73 354.37 325.73 302.53 336.1 312.04 336.1 344.87 325.73 354.37"/><path class="cls-7" d="M480.8,344.87h15.05a1.3,1.3,0,0,0,1.44-1.44v-30a1.29,1.29,0,0,0-1.44-1.43H480.8l-10.37-9.51h27.14c6.56,0,10.08,3.53,10.08,10.08v31.68c0,6.55-3.52,10.08-10.08,10.08H470.43Z"/><path class="cls-8" d="M414.84,230c-1.91,0-2.84-1.47-2.84-3.38V165.71c0-1.91.93-2.71,2.84-2.71h30L423.7,144H411.32C398,144,391,150.62,391,164v64.43c0,13.33,7,21.62,20.32,21.62H423.7l21.09-20Z"/><path class="cls-7" d="M500.09,144h-55.2L466,163h30.61c1.9,0,3.42.8,3.42,2.71v60.91a3.37,3.37,0,0,1-3.42,3.38H466l-21.08,20h55.2c13.33,0,20.91-8.29,20.91-21.62V164C521,150.62,513.42,144,500.09,144Z"/><polygon class="cls-8" points="465.25 354.37 465.25 302.53 475.62 312.04 475.62 344.87 465.25 354.37"/></svg>