<svg id="Design" xmlns="http://www.w3.org/2000/svg" viewBox="0 0 960 560"><defs><style>.cls-1{fill:#666;}</style></defs><title>font</title><g id="ABC"><path class="cls-1" d="M65.19,67.48H50.78L47.11,77.77H43.48l12.59-34.3h4l12.59,34.3H68.86ZM64,64.25,58,47.34,52,64.25Z"/><path class="cls-1" d="M104.63,43.47h16.56c4.66,0,6.86,2.21,6.86,6.86v4.75c0,2.9-1.32,4.41-3.23,5.15,2.4.69,3.63,2.3,3.63,5.19v5.49c0,4.65-2.21,6.86-6.86,6.86h-17ZM121,58.61c2.55,0,3.53-1,3.53-3.53V50.23c0-2.54-1-3.52-3.53-3.52H108.16v11.9Zm.39,15.93c2.55,0,3.53-1,3.53-3.53V65.32c0-2.54-1-3.52-3.53-3.52H108.16V74.54Z"/><path class="cls-1" d="M162.16,70.91V50.33c0-4.65,2.2-6.86,6.86-6.86h10.19c4.65,0,6.86,2.21,6.86,6.86v3.73h-3.53V50.23c0-2.54-1-3.52-3.53-3.52h-9.8c-2.54,0-3.52,1-3.52,3.52V71c0,2.55,1,3.53,3.52,3.53H179c2.55,0,3.53-1,3.53-3.53V67.19h3.53v3.72c0,4.46-2.21,6.86-6.86,6.86H169C164.36,77.77,162.16,75.37,162.16,70.91Z"/><path class="cls-1" d="M220.66,43.47h17.1c4.66,0,6.86,2.21,6.86,6.86V70.91c0,4.65-2.2,6.86-6.86,6.86h-17.1Zm16.91,31.07c2.54,0,3.52-1,3.52-3.53V50.23c0-2.54-1-3.52-3.52-3.52H224.19V74.54Z"/><path class="cls-1" d="M279.81,43.47h21.7v3.24H283.33v11.9h15.34v3.24H283.33V74.54h18.18v3.23h-21.7Z"/><path class="cls-1" d="M335.57,43.47h21.7v3.24H339.09V59h15.34v3.24H339.09V77.77h-3.52Z"/><path class="cls-1" d="M389.61,70.91V50.33c0-4.65,2.21-6.86,6.86-6.86H407c4.65,0,6.86,2.21,6.86,6.86v3.24h-3.53V50.23c0-2.54-1-3.52-3.53-3.52H396.67c-2.55,0-3.53,1-3.53,3.52V71c0,2.55,1,3.53,3.53,3.53h10.14c2.55,0,3.53-1,3.53-3.53V63.22h-9V60h12.5V70.91c0,4.65-2.21,6.86-6.86,6.86H396.47C391.82,77.77,389.61,75.56,389.61,70.91Z"/><path class="cls-1" d="M449,43.47h3.53V58.61H470V43.47h3.53v34.3H470V61.85H452.48V77.77H449Z"/><path class="cls-1" d="M509.61,43.47h3.53v34.3h-3.53Z"/><path class="cls-1" d="M545.09,70.91V65.42h3.52V71c0,2.55,1,3.53,3.53,3.53h7.55c2.55,0,3.53-1,3.53-3.53V43.47h3.52V70.91c0,4.65-2.2,6.86-6.86,6.86H552C547.29,77.77,545.09,75.56,545.09,70.91Z"/><path class="cls-1" d="M624.76,77.77,613.15,59.89l-7.35,8.23v9.65h-3.53V43.47h3.53V63.61l17.63-20.14h4.37L615.45,57.29l13.42,20.48Z"/><path class="cls-1" d="M660,43.47h3.53V74.54h16.95v3.23H660Z"/><path class="cls-1" d="M712.76,43.47h4.41l11.42,25.09,11.46-25.09h4.41v34.3H741V48.71L730.16,72.82H727L716.09,48.71V77.77h-3.33Z"/><path class="cls-1" d="M780.53,43.47h3.92l18,29v-29h3.33v34.3h-3.63L783.86,48.32V77.77h-3.33Z"/><path class="cls-1" d="M841,70.91V50.33c0-4.65,2.21-6.86,6.86-6.86h10.83c4.66,0,6.86,2.21,6.86,6.86V70.91c0,4.65-2.2,6.86-6.86,6.86H847.85C843.2,77.77,841,75.56,841,70.91Zm17.5,3.63c2.54,0,3.52-1,3.52-3.53V50.23c0-2.54-1-3.52-3.52-3.52H848.05c-2.55,0-3.53,1-3.53,3.52V71c0,2.55,1,3.53,3.53,3.53Z"/><path class="cls-1" d="M900.72,43.47h16.76c4.46,0,6.86,2.4,6.86,6.86v7.25c0,4.46-2.4,6.86-6.86,6.86H904.25V77.77h-3.53Zm16.57,17.74c2.3,0,3.52-1.23,3.52-3.53V50.23c0-2.3-1.22-3.52-3.52-3.52h-13v14.5Z"/><path class="cls-1" d="M223.89,136.57h-3.67c-4.66,0-6.86-2.21-6.86-6.86V109.13c0-4.65,2.2-6.86,6.86-6.86h10.83c4.65,0,6.86,2.21,6.86,6.86v20.58c0,4.65-2.21,6.86-6.86,6.86h-3.63v6.17h-3.53Zm7-3.23c2.55,0,3.53-1,3.53-3.53V109c0-2.54-1-3.52-3.53-3.52H220.42c-2.55,0-3.53,1-3.53,3.52v20.78c0,2.55,1,3.53,3.53,3.53Z"/><path class="cls-1" d="M297.73,136.57h-3.92l-7.64-14.16h-9.55v14.16h-3.53v-34.3H289.8c4.65,0,6.86,2.21,6.86,6.86v6.42c0,4.56-2.11,6.76-6.57,6.86Zm-8.13-17.39c2.55,0,3.53-1,3.53-3.53V109c0-2.54-1-3.52-3.53-3.52h-13v13.67Z"/><path class="cls-1" d="M330.52,129.71v-3.48H334V130c0,2.55,1,3.53,3.53,3.53h9.7c2.55,0,3.53-1,3.53-3.53v-4.11c0-2.6-1.13-3.43-3.53-4l-9.6-2.21c-3.82-.88-7.05-1.86-7.05-7v-3.58c0-4.65,2.2-6.86,6.85-6.86H347c4.65,0,6.86,2.21,6.86,6.86v3.14h-3.53v-3.43c0-2.55-1-3.53-3.53-3.53h-9.11c-2.55,0-3.53,1-3.53,3.53v3.48c0,2.59,1.13,3.43,3.53,4l9.6,2.2c3.83.88,7.06,1.86,7.06,7v4.21c0,4.65-2.21,6.86-6.86,6.86H337.38C332.72,136.57,330.52,134.36,330.52,129.71Z"/><path class="cls-1" d="M395.25,105.51H384.71v-3.24h24.6v3.24H398.77v31.06h-3.52Z"/><path class="cls-1" d="M440.52,129.71V102.27h3.53v27.54c0,2.55,1,3.53,3.53,3.53h9.89c2.55,0,3.53-1,3.53-3.53V102.27h3.53v27.44c0,4.65-2.2,6.86-6.86,6.86H447.38C442.73,136.57,440.52,134.36,440.52,129.71Z"/><path class="cls-1" d="M495.94,102.27h3.82l10,30.43L520,102.27h3.62l-11.8,34.3h-4Z"/><path class="cls-1" d="M551.7,102.27h3.82l7.3,29.79,8.24-29.79h3.23l8.23,29.79,7.3-29.79h3.72l-9.26,34.3h-3.67l-7.94-28.76-7.93,28.76H561Z"/><path class="cls-1" d="M633.14,119.08l-11.27-16.81h4l9.45,14,9.41-14h3.73l-11.27,16.81,11.66,17.49h-4L635,121.92l-9.8,14.65h-3.72Z"/><path class="cls-1" d="M688,124.42l-12.2-22.15h3.82l10.19,18.57L700,102.27h3.72l-12.2,22.15v12.15H688Z"/><path class="cls-1" d="M733.15,134l19.25-28.51H734v-3.19h22.59v2.6l-19.26,28.51h19.16v3.19H733.15Z"/><path class="cls-1" d="M40.23,187.73c0-5.49,2.15-7,6.66-7.45,2.4-.25,6.17-.54,10.48-.74v-4.26c0-2.45-1-3.43-3.43-3.43H47.87c-2.45,0-3.43,1-3.43,3.43V176H41.11v-.44c0-4.51,2.15-6.67,6.66-6.67H54c4.51,0,6.67,2.16,6.67,6.67v19.79H57.37v-3.63c-2.2,2.6-4.65,3.83-9.45,3.83C42.38,195.57,40.23,193.21,40.23,187.73Zm17.14,1.71v-7.59L47,183c-2.45.3-3.43,1-3.43,4.71s1,4.9,4.41,4.9C52.33,192.63,54.48,191.5,57.37,189.44Z"/><path class="cls-1" d="M98.09,191.74v3.63H94.76V159.6h3.33v12.94c2.6-2.21,4.66-3.82,9.7-3.82,5.79,0,7.94,2.15,7.94,6.66V188.9c0,4.51-2.15,6.67-7.94,6.67C102.75,195.57,100.69,194,98.09,191.74Zm14.31-2.64V175.18c0-2.45-1-3.43-4.66-3.43a14.21,14.21,0,0,0-9.65,3.19v14.4a14.21,14.21,0,0,0,9.65,3.19C111.42,192.53,112.4,191.55,112.4,189.1Z"/><path class="cls-1" d="M148.86,188.71V175.58c0-4.51,2.15-6.67,6.66-6.67h6.66c4.51,0,6.67,2.16,6.67,6.67v1.76h-3.34v-2c0-2.45-1-3.43-3.43-3.43h-6.46c-2.45,0-3.43,1-3.43,3.43V188.9c0,2.45,1,3.43,3.43,3.43h6.46c2.45,0,3.43-1,3.43-3.43v-2h3.34v1.77c0,4.5-2.16,6.66-6.67,6.66h-6.66C151,195.37,148.86,193.21,148.86,188.71Z"/><path class="cls-1" d="M201.38,188.9V175.38c0-4.51,2.16-6.66,7.94-6.66,5.05,0,7.11,1.61,9.7,3.82V159.6h3.33v35.77H219v-3.63c-2.59,2.21-4.65,3.83-9.7,3.83C203.54,195.57,201.38,193.41,201.38,188.9Zm17.64.44v-14.4a14.2,14.2,0,0,0-9.65-3.19c-3.67,0-4.65,1-4.65,3.43V189.1c0,2.45,1,3.43,4.65,3.43A14.2,14.2,0,0,0,219,189.34Z"/><path class="cls-1" d="M259.4,182.83V189c0,2.45,1,3.43,3.43,3.43h6.76c2.45,0,3.43-1,3.43-3.43v-1.91h3.33v1.62c0,4.5-2.15,6.66-6.66,6.66h-7c-4.51,0-6.66-2.16-6.66-6.66V175.58c0-4.51,2.15-6.67,6.66-6.67h7c4.51,0,6.66,2.16,6.66,6.67v7.25Zm0-7.55v4.8H273v-4.8c0-2.45-.93-3.43-3.43-3.43h-6.76C260.38,171.85,259.4,172.83,259.4,175.28Z"/><path class="cls-1" d="M312.17,171.75h-4.65v-2.84h4.7v-2.64c0-4.51,2.16-6.67,6.66-6.67h3.78v2.94h-3.78c-2.4,0-3.43,1-3.43,3.43v2.94h7.7v2.84H315.5v23.62h-3.33Z"/><path class="cls-1" d="M357,200.27h11.36c2.45,0,3.43-1,3.43-3.43v-5.78c-2.59,2.2-4.65,3.82-9.7,3.82-5.78,0-7.94-2.16-7.94-6.66V175.38c0-4.51,2.16-6.66,7.94-6.66,5.05,0,7.11,1.61,9.7,3.82v-3.63h3.33v27.64c0,4.5-2.15,6.66-6.66,6.66H357Zm14.79-11.61V174.94a14.2,14.2,0,0,0-9.65-3.19c-3.67,0-4.65,1-4.65,3.43v13.23c0,2.45,1,3.43,4.65,3.43A14.19,14.19,0,0,0,371.75,188.66Z"/><path class="cls-1" d="M409.38,159.6h3.34v12.89c2.59-2.21,4.65-3.82,9.31-3.82,5.39,0,7.54,2.15,7.54,6.66v20h-3.33V175.13c0-2.45-.93-3.42-4.26-3.42-4.22,0-6.37,1.12-9.26,3.18v20.48h-3.34Z"/><path class="cls-1" d="M463.68,160.58h3.82v4.31h-3.82Zm.24,8.33h3.33v26.46h-3.33Z"/><path class="cls-1" d="M496.36,201.1l2.35-.83c1.91-.69,3.43-1.52,3.43-3.68V168.91h3.33v27.44c0,4.07-2.15,5.78-6.66,6.66l-2.45.49Zm5.53-40.52h3.83v4.31h-3.83Z"/><path class="cls-1" d="M556.77,195.37,549,181.31l-5.63,6.52v7.54h-3.34V159.6h3.34v24l12.25-14.7h4.06l-8.62,10,9.41,16.46Z"/><path class="cls-1" d="M592.15,159.6h3.33v35.77h-3.33Z"/><path class="cls-1" d="M665.16,175.28v20.09h-3.33V175.09c0-2.45-1-3.43-3.78-3.43-3.67,0-5.93,1.17-8.77,3.18v20.53H646V175.09c0-2.45-1-3.43-3.77-3.43-3.73,0-5.88,1.12-8.77,3.18v20.53h-3.33V168.91h3.33v3.53c2.59-2.2,4.65-3.82,8.82-3.82,3.82,0,6,1.32,6.76,4.06,2.5-2.3,5-4.06,9.11-4.06C663,168.62,665.16,170.77,665.16,175.28Z"/><path class="cls-1" d="M699.21,168.91h3.34v3.58c2.59-2.21,4.65-3.82,9.31-3.82,5.39,0,7.54,2.15,7.54,6.66v20h-3.33V175.13c0-2.45-.93-3.42-4.26-3.42-4.22,0-6.37,1.12-9.26,3.18v20.48h-3.34Z"/><path class="cls-1" d="M752.87,188.71V175.58c0-4.51,2.15-6.67,6.66-6.67h7.3c4.51,0,6.67,2.16,6.67,6.67v13.13c0,4.5-2.16,6.66-6.67,6.66h-7.3C755,195.37,752.87,193.21,752.87,188.71Zm13.86,3.62c2.45,0,3.43-1,3.43-3.43V175.38c0-2.45-1-3.43-3.43-3.43h-7.1c-2.45,0-3.43,1-3.43,3.43V188.9c0,2.45,1,3.43,3.43,3.43Z"/><path class="cls-1" d="M807.21,168.91h3.33v3.63c2.6-2.21,4.65-3.82,9.7-3.82,5.78,0,7.94,2.15,7.94,6.66V188.9c0,4.51-2.16,6.67-7.94,6.67-5,0-7.1-1.62-9.7-3.83v11.47h-3.33Zm17.64,20.19V175.18c0-2.45-1-3.43-4.66-3.43a14.21,14.21,0,0,0-9.65,3.19v14.4a14.21,14.21,0,0,0,9.65,3.19C823.87,192.53,824.85,191.55,824.85,189.1Z"/><path class="cls-1" d="M878.94,191.74c-2.6,2.21-4.65,3.83-9.7,3.83-5.78,0-7.94-2.16-7.94-6.67V175.38c0-4.51,2.16-6.66,7.94-6.66,5,0,7.1,1.61,9.7,3.82v-3.63h3.33v34.3h-3.33Zm0-2.4v-14.4a14.2,14.2,0,0,0-9.65-3.19c-3.68,0-4.66,1-4.66,3.43V189.1c0,2.45,1,3.43,4.66,3.43A14.2,14.2,0,0,0,878.94,189.34Z"/><path class="cls-1" d="M916.57,168.91h3.34v3.82c2.35-2,4.6-3.82,8.42-3.82h1.87v3.24h-1.87c-3.38,0-5.83,1.42-8.42,3.08v20.14h-3.34Z"/><path class="cls-1" d="M292.64,246.53v-.35h3.24v.54c0,3.43,1,4.41,3.43,4.41H306c2.45,0,3.43-1,3.43-4.6,0-3.09-1-3.58-3-3.92l-7.69-1.28c-3.82-.63-5.68-2.2-5.68-6.32,0-5.14,2.15-7.3,6.66-7.3h5.78c4.51,0,6.67,2.16,6.67,7.16v.39h-3.24v-.59c0-2.94-1-3.92-3.43-3.92h-5.68c-2.45,0-3.43,1-3.43,4.12,0,2.64,1,3.13,3,3.47l7.69,1.28c3.82.63,5.68,2.2,5.68,6.76,0,5.63-2.15,7.79-6.66,7.79h-6.76C294.8,254.17,292.64,252,292.64,246.53Z"/><path class="cls-1" d="M347.23,247.51V230.65h-3.92v-2.94h3.92v-6.37h3.33v6.37h6.61v2.94h-6.61v17c0,2.45,1,3.43,3.43,3.43h3.18v3h-3.28C349.38,254.17,347.23,252,347.23,247.51Z"/><path class="cls-1" d="M389.07,247.75v-20h3.34V248c0,2.45.93,3.43,4.26,3.43,4.21,0,6.37-1.13,9.26-3.19V227.71h3.33v26.46h-3.33v-3.58c-2.6,2.21-4.66,3.83-9.31,3.83C391.23,254.42,389.07,252.26,389.07,247.75Z"/><path class="cls-1" d="M440.72,227.71h3.48L452,251.38l7.79-23.67h3.38l-9.11,26.46h-4.22Z"/><path class="cls-1" d="M491.78,227.71h3.43l5.68,23.08,6.61-23.08h3.24l6.61,23.08L523,227.71h3.33l-7.21,26.46h-3.67l-6.37-22-6.37,22H499Z"/><path class="cls-1" d="M564.29,240.79,555,227.71h3.73l7.49,10.73,7.4-10.73h3.53L568,240.84l9.45,13.33h-3.72l-7.69-11-7.6,11h-3.52Z"/><path class="cls-1" d="M615.69,254.17l-9.6-26.46h3.43L617.36,250l8.13-22.29h3.33L615.94,262H612.8Z"/><path class="cls-1" d="M658.42,252.11l14.41-21.56H659.11v-2.84h17.83v2.06l-14.45,21.56h14.26v2.84H658.42Z"/><path class="cls-1" d="M225.64,306.11V285.53c0-4.65,2.2-6.86,6.86-6.86h9.84c4.66,0,6.86,2.21,6.86,6.86v20.58c0,4.65-2.2,6.86-6.86,6.86H232.5C227.84,313,225.64,310.76,225.64,306.11Zm16.51,3.63c2.55,0,3.53-1,3.53-3.53V285.43c0-2.54-1-3.52-3.53-3.52h-9.46c-2.55,0-3.52,1-3.52,3.52v20.78c0,2.55,1,3.53,3.52,3.53Z"/><path class="cls-1" d="M289,282.3l-6.91,2.5v-3.29l7.4-2.84h3V313H289Z"/><path class="cls-1" d="M328,304.3c0-3.63,2.25-4.66,7.05-7.06l8.33-4.16c2.21-1.08,3.53-1.82,3.53-3.33v-4.32c0-2.54-1-3.52-3.53-3.52h-7.84c-2.55,0-3.53,1-3.53,3.52v3.29h-3.52v-3.19c0-4.65,2.2-6.86,6.86-6.86h8.23c4.65,0,6.86,2.21,6.86,6.86v4.22c0,3.62-2.26,4.65-7.06,7.05L335,301c-2.15,1.07-3.52,1.81-3.52,3.33v5.44h19V313H328Z"/><path class="cls-1" d="M383.32,306.11v-2.89h3.52v3c0,2.55,1,3.53,3.53,3.53h9.21c2.55,0,3.53-1,3.53-3.53v-5.78c0-2.55-1-3.53-3.53-3.53h-9.11v-3.19h8.72c2.55,0,3.53-1,3.53-3.52v-4.76c0-2.54-1-3.52-3.53-3.52h-8.43c-2.54,0-3.52,1-3.52,3.52v3h-3.53v-2.89c0-4.65,2.2-6.86,6.86-6.86h8.82c4.65,0,6.86,2.21,6.86,6.86v4.66c0,2.89-1.33,4.41-3.24,5.14,2.4.69,3.63,2.3,3.63,5.19v5.59c0,4.65-2.21,6.86-6.86,6.86h-9.6C385.52,313,383.32,310.76,383.32,306.11Z"/><path class="cls-1" d="M456.42,304.15H438.78l-.49-2.74,17.64-22.74h4v22.25h5.14v3.23H460V313h-3.53Zm0-3.23V283l-14,17.94Z"/><path class="cls-1" d="M497.24,306.11v-2.89h3.53v3c0,2.55,1,3.53,3.52,3.53h8.38c2.55,0,3.53-1,3.53-3.53v-8.87c0-2.55-1-3.53-5.1-3.53a15.68,15.68,0,0,0-10,3.09l-3.53-1.13v-17.1h21.71v3.24H501.06V294.4c2.3-2.11,4.66-3.82,10.09-3.82,6.37,0,8.58,2.2,8.58,6.86v8.67c0,4.65-2.21,6.86-6.86,6.86H504.1C499.44,313,497.24,310.76,497.24,306.11Z"/><path class="cls-1" d="M553.64,306.11V285.53c0-4.65,2.2-6.86,6.86-6.86h8.38c4.65,0,6.85,2.21,6.85,6.86v2.75h-3.52v-2.85c0-2.3-1.23-3.52-3.53-3.52h-8c-2.3,0-3.52,1.22-3.52,3.52v9.95c2.3-2.11,4.65-3.82,10.28-3.82,6.57,0,8.77,2.2,8.77,6.86v7.69c0,4.65-2.2,6.86-6.86,6.86H560.5C555.84,313,553.64,310.76,553.64,306.11Zm15.53,3.63c2.55,0,3.53-1,3.53-3.53v-7.89c0-2.55-1-3.53-5.34-3.53a15.86,15.86,0,0,0-10.19,3.09v8.33c0,2.55,1,3.53,3.52,3.53Z"/><path class="cls-1" d="M627.72,281.91H608.37v-3.24h23.32V281l-15,32H613Z"/><path class="cls-1" d="M663.44,306.11v-5.59c0-2.89,1.23-4.5,3.63-5.19-1.91-.73-3.23-2.25-3.23-5.14v-4.66c0-4.65,2.2-6.86,6.86-6.86h9.21c4.65,0,6.86,2.21,6.86,6.86v4.66c0,2.89-1.33,4.41-3.24,5.14,2.4.69,3.63,2.3,3.63,5.19v5.59c0,4.65-2.21,6.86-6.86,6.86h-10C665.65,313,663.44,310.76,663.44,306.11Zm16.66,3.63c2.55,0,3.53-1,3.53-3.53v-5.78c0-2.55-1-3.53-3.53-3.53h-9.6c-2.55,0-3.53,1-3.53,3.53v5.78c0,2.55,1,3.53,3.53,3.53Zm-.39-16c2.55,0,3.53-1,3.53-3.52v-4.76c0-2.54-1-3.52-3.53-3.52h-8.82c-2.55,0-3.53,1-3.53,3.52v4.76c0,2.54,1,3.52,3.53,3.52Z"/><path class="cls-1" d="M721.26,306.11v-2.74h3.53v2.84c0,2.55,1,3.53,3.53,3.53h8c2.54,0,3.52-1,3.52-3.53V295.87c-2.3,2.11-4.65,3.82-10.29,3.82-6.56,0-8.77-2.2-8.77-6.86v-7.3c0-4.65,2.21-6.86,6.86-6.86h8.87c4.66,0,6.86,2.21,6.86,6.86v20.58c0,4.65-2.2,6.86-6.86,6.86h-8.38C723.47,313,721.26,310.76,721.26,306.11Zm18.57-12.74v-7.94c0-2.54-1-3.52-3.52-3.52h-8.48c-2.55,0-3.53,1-3.53,3.52v7.5c0,2.55,1,3.53,5.34,3.53A15.86,15.86,0,0,0,739.83,293.37Z"/></g></svg>