<svg id="Design" xmlns="http://www.w3.org/2000/svg" viewBox="0 0 960 560"><defs><style>.cls-1{fill:#666;}.cls-2{fill:#4d4d4d;}.cls-3{fill:#12c7fd;}</style></defs><title>napoli2</title><path class="cls-1" d="M506.4,264.06h3.92l18,29v-29h3.33v34.3h-3.62l-18.33-29.45v29.45H506.4Z"/><path class="cls-1" d="M567,288.07h-14.4l-3.68,10.29h-3.62l12.59-34.3h4l12.59,34.3h-3.82Zm-1.17-3.23-6-16.91-6,16.91Z"/><path class="cls-1" d="M588.13,264.06h16.76c4.46,0,6.86,2.4,6.86,6.86v7.25c0,4.46-2.4,6.86-6.86,6.86H591.66v13.33h-3.53Zm16.56,17.74c2.31,0,3.53-1.22,3.53-3.53v-7.45c0-2.3-1.22-3.52-3.53-3.52h-13v14.5Z"/><path class="cls-1" d="M625.67,291.5V270.92c0-4.65,2.2-6.86,6.86-6.86h10.82c4.66,0,6.86,2.21,6.86,6.86V291.5c0,4.66-2.2,6.86-6.86,6.86H632.53C627.87,298.36,625.67,296.16,625.67,291.5Zm17.49,3.63c2.55,0,3.52-1,3.52-3.53V270.82c0-2.54-1-3.52-3.52-3.52H632.72c-2.55,0-3.53,1-3.53,3.52V291.6c0,2.55,1,3.53,3.53,3.53Z"/><path class="cls-1" d="M666.19,264.06h3.53v31.07h16.95v3.23H666.19Z"/><path class="cls-1" d="M700.78,264.06h3.53v34.3h-3.53Z"/><path class="cls-2" d="M317.68,279c-1.9,0-2.68-1.47-2.68-3.38V214.71c0-1.91.78-2.71,2.68-2.71h29.95l-21.09-19H314.17C300.84,193,294,199.62,294,213v64.43c0,13.33,6.84,21.62,20.17,21.62h12.37l21.09-20Z"/><path class="cls-3" d="M402.94,193H347.73l21.09,19h30.6c1.91,0,3.58.8,3.58,2.71v60.91a3.5,3.5,0,0,1-3.58,3.38h-30.6l-21.09,20h55.21c13.32,0,21.06-8.29,21.06-21.62V213C424,199.62,416.26,193,402.94,193Z"/><path class="cls-3" d="M493.75,235.84H508.8a1.29,1.29,0,0,0,1.44-1.44v-30A1.3,1.3,0,0,0,508.8,203H493.75l-10.37-9.5h27.14c6.55,0,10.08,3.53,10.08,10.08v31.68c0,6.55-3.53,10.08-10.08,10.08H483.38Z"/><path class="cls-2" d="M562.48,193.51V203H538.94v11.16H558v9.36H538.94v12.31h23.54v9.51H528.57V193.51Z"/><path class="cls-2" d="M595.63,245.35h-12.1l-15.62-51.84h11.37l10.44,40.39,10.44-40.39h11.09Z"/><path class="cls-2" d="M678.5,233.68l-3.24,11.67H664.32l16.49-51.84h12.53l16.48,51.84H698.45l-3.24-11.67Zm8.36-29.8-5.69,20.3h11.37Z"/><path class="cls-2" d="M721.37,245.35V227.42L705,193.51h11.23l10.44,23.18,10.44-23.18h11.09l-16.42,33.91v17.93Z"/><polygon class="cls-2" points="478.2 245.35 478.2 193.51 488.56 203.01 488.56 235.84 478.2 245.35"/><path class="cls-3" d="M633.27,235.84h15a1.29,1.29,0,0,0,1.44-1.44v-30a1.29,1.29,0,0,0-1.44-1.44h-15l-10.37-9.5H650c6.55,0,10.08,3.53,10.08,10.08v31.68c0,6.55-3.53,10.08-10.08,10.08H622.9Z"/><polygon class="cls-2" points="617.72 245.35 617.72 193.51 628.08 203.01 628.08 235.84 617.72 245.35"/></svg>