<svg id="Design" xmlns="http://www.w3.org/2000/svg" viewBox="0 0 960 560"><defs><style>.cls-1{fill:#666;}.cls-2{fill:#12c7fd;}.cls-3{fill:#4d4d4d;}</style></defs><title>napoli</title><path class="cls-1" d="M357.05,373.47H361l18,29v-29h3.33v34.3H378.7l-18.32-29.45v29.45h-3.33Z"/><path class="cls-1" d="M417.66,397.48H403.25l-3.67,10.29H396l12.59-34.3h4l12.59,34.3h-3.82Zm-1.18-3.23-6-16.91-6,16.91Z"/><path class="cls-1" d="M438.78,373.47h16.75c4.46,0,6.86,2.4,6.86,6.86v7.25c0,4.46-2.4,6.86-6.86,6.86H442.3v13.33h-3.52Zm16.56,17.74c2.3,0,3.52-1.23,3.52-3.53v-7.45c0-2.3-1.22-3.52-3.52-3.52h-13v14.5Z"/><path class="cls-1" d="M476.31,400.91V380.33c0-4.65,2.2-6.86,6.86-6.86H494c4.65,0,6.86,2.21,6.86,6.86v20.58c0,4.65-2.21,6.86-6.86,6.86H483.17C478.51,407.77,476.31,405.56,476.31,400.91Zm17.49,3.63c2.55,0,3.53-1,3.53-3.53V380.23c0-2.54-1-3.52-3.53-3.52H483.37c-2.55,0-3.53,1-3.53,3.52V401c0,2.55,1,3.53,3.53,3.53Z"/><path class="cls-1" d="M516.83,373.47h3.53v31.07h16.95v3.23H516.83Z"/><path class="cls-1" d="M551.43,373.47H555v34.3h-3.52Z"/><path class="cls-2" d="M341.28,344.87h15.05a1.3,1.3,0,0,0,1.44-1.44v-30a1.29,1.29,0,0,0-1.44-1.43H341.28l-10.37-9.51h27.15c6.55,0,10.08,3.53,10.08,10.08v31.68c0,6.55-3.53,10.08-10.08,10.08H330.91Z"/><path class="cls-3" d="M410,302.53V312H386.47V323.2h19.08v9.35H386.47v12.32H410v9.5H376.11V302.53Z"/><path class="cls-3" d="M443.16,354.37h-12.1l-15.62-51.84h11.38l10.43,40.39,10.44-40.39h11.09Z"/><path class="cls-3" d="M526,342.71l-3.24,11.66H511.85l16.49-51.84h12.53l16.49,51.84H546l-3.24-11.66Zm8.35-29.81-5.69,20.3h11.38Z"/><path class="cls-3" d="M568.9,354.37V336.44l-16.41-33.91h11.23l10.44,23.18,10.44-23.18h11.09l-16.42,33.91v17.93Z"/><polygon class="cls-3" points="325.73 354.37 325.73 302.53 336.1 312.04 336.1 344.87 325.73 354.37"/><path class="cls-2" d="M480.8,344.87h15.05a1.3,1.3,0,0,0,1.44-1.44v-30a1.29,1.29,0,0,0-1.44-1.43H480.8l-10.37-9.51h27.14c6.56,0,10.08,3.53,10.08,10.08v31.68c0,6.55-3.52,10.08-10.08,10.08H470.43Z"/><path class="cls-3" d="M414.84,230c-1.91,0-2.84-1.47-2.84-3.38V165.71c0-1.91.93-2.71,2.84-2.71h30L423.7,144H411.32C398,144,391,150.62,391,164v64.43c0,13.33,7,21.62,20.32,21.62H423.7l21.09-20Z"/><path class="cls-2" d="M500.09,144h-55.2L466,163h30.61c1.9,0,3.42.8,3.42,2.71v60.91a3.37,3.37,0,0,1-3.42,3.38H466l-21.08,20h55.2c13.33,0,20.91-8.29,20.91-21.62V164C521,150.62,513.42,144,500.09,144Z"/><polygon class="cls-3" points="465.25 354.37 465.25 302.53 475.62 312.04 475.62 344.87 465.25 354.37"/></svg>