<svg id="Design" xmlns="http://www.w3.org/2000/svg" viewBox="0 0 960 560"><defs><style>.cls-1{fill:#666;}.cls-2{fill:#c1272d;}.cls-3{fill:#4d4d4d;}</style></defs><title>salerno</title><path class="cls-1" d="M327.83,400.91v-3.48h3.53v3.77c0,2.55,1,3.53,3.53,3.53h9.7c2.55,0,3.53-1,3.53-3.53v-4.11c0-2.6-1.13-3.43-3.53-4l-9.61-2.2c-3.82-.89-7.05-1.87-7.05-7v-3.58c0-4.65,2.2-6.86,6.86-6.86h9.5c4.66,0,6.86,2.21,6.86,6.86v3.14h-3.52V380c0-2.55-1-3.53-3.53-3.53H335c-2.54,0-3.52,1-3.52,3.53v3.48c0,2.59,1.12,3.43,3.52,4l9.61,2.2c3.82.88,7.05,1.86,7.05,7v4.21c0,4.65-2.2,6.86-6.86,6.86H334.69C330,407.77,327.83,405.56,327.83,400.91Z"/><path class="cls-1" d="M385,397.48h-14.4l-3.68,10.29h-3.62l12.59-34.3h4l12.59,34.3h-3.82Zm-1.17-3.23-6-16.91-6,16.91Z"/><path class="cls-1" d="M406.13,373.47h3.53v31.07h16.95v3.23H406.13Z"/><path class="cls-1" d="M440.73,373.47h21.7v3.24H444.25v11.9h15.34v3.24H444.25v12.69h18.18v3.23h-21.7Z"/><path class="cls-1" d="M501.92,407.77H498l-7.64-14.16h-9.55v14.16h-3.53v-34.3H494c4.65,0,6.86,2.21,6.86,6.86v6.42c0,4.56-2.11,6.76-6.57,6.86Zm-8.13-17.39c2.55,0,3.53-1,3.53-3.53v-6.62c0-2.54-1-3.52-3.53-3.52h-13v13.67Z"/><path class="cls-1" d="M516.87,373.47h3.92l18,29v-29h3.33v34.3h-3.62L520.2,378.32v29.45h-3.33Z"/><path class="cls-1" d="M558.13,400.91V380.33c0-4.65,2.2-6.86,6.86-6.86h10.83c4.65,0,6.86,2.21,6.86,6.86v20.58c0,4.65-2.21,6.86-6.86,6.86H565C560.33,407.77,558.13,405.56,558.13,400.91Zm17.49,3.63c2.55,0,3.53-1,3.53-3.53V380.23c0-2.54-1-3.52-3.53-3.52H565.18c-2.54,0-3.52,1-3.52,3.52V401c0,2.55,1,3.53,3.52,3.53Z"/><path class="cls-2" d="M341.28,344.87h15.05a1.3,1.3,0,0,0,1.44-1.44v-30a1.29,1.29,0,0,0-1.44-1.43H341.28l-10.37-9.51h27.15c6.55,0,10.08,3.53,10.08,10.08v31.68c0,6.55-3.53,10.08-10.08,10.08H330.91Z"/><path class="cls-3" d="M410,302.53V312H386.47V323.2h19.08v9.35H386.47v12.32H410v9.5H376.11V302.53Z"/><path class="cls-3" d="M443.16,354.37h-12.1l-15.62-51.84h11.38l10.43,40.39,10.44-40.39h11.09Z"/><path class="cls-3" d="M526,342.71l-3.24,11.66H511.85l16.49-51.84h12.53l16.49,51.84H546l-3.24-11.66Zm8.35-29.81-5.69,20.3h11.38Z"/><path class="cls-3" d="M568.9,354.37V336.44l-16.41-33.91h11.23l10.44,23.18,10.44-23.18h11.09l-16.42,33.91v17.93Z"/><polygon class="cls-3" points="325.73 354.37 325.73 302.53 336.1 312.04 336.1 344.87 325.73 354.37"/><path class="cls-2" d="M480.8,344.87h15.05a1.3,1.3,0,0,0,1.44-1.44v-30a1.29,1.29,0,0,0-1.44-1.43H480.8l-10.37-9.51h27.14c6.56,0,10.08,3.53,10.08,10.08v31.68c0,6.55-3.52,10.08-10.08,10.08H470.43Z"/><path class="cls-3" d="M414.84,230c-1.91,0-2.84-1.47-2.84-3.38V165.71c0-1.91.93-2.71,2.84-2.71h30L423.7,144H411.32C398,144,391,150.62,391,164v64.43c0,13.33,7,21.62,20.32,21.62H423.7l21.09-20Z"/><path class="cls-2" d="M500.09,144h-55.2L466,163h30.61c1.9,0,3.42.8,3.42,2.71v60.91a3.37,3.37,0,0,1-3.42,3.38H466l-21.08,20h55.2c13.33,0,20.91-8.29,20.91-21.62V164C521,150.62,513.42,144,500.09,144Z"/><polygon class="cls-3" points="465.25 354.37 465.25 302.53 475.62 312.04 475.62 344.87 465.25 354.37"/></svg>